<svg xmlns="http://www.w3.org/2000/svg" xmlns:xlink="http://www.w3.org/1999/xlink" width="2170" height="1080" viewBox="0 0 2170 1080">
  <defs>
    <style>
      .cls-1 {
        clip-path: url(#clip-Landing_2);
      }

      .cls-2 {
        fill: none;
      }

      .cls-3 {
        fill: #92dce5;
      }

      .cls-4 {
        fill: #fff;
      }

      .cls-5 {
        fill: #f7ec59;
      }

      .cls-6 {
        fill: #2b2d42;
      }

      .cls-7 {
        font-size: 18px;
        font-family: Montserrat-Regular, Montserrat;
        letter-spacing: 0.05em;
      }

      .cls-8, .cls-9 {
        stroke: none;
      }

      .cls-9 {
        fill: #2b2d42;
      }

      .cls-10 {
        fill: rgba(255,255,255,0);
      }
    </style>
    <clipPath id="clip-Landing_2">
      <rect width="2170" height="1080"/>
    </clipPath>
  </defs>
  <g id="Landing_2" data-name="Landing – 2" class="cls-1">
    <rect class="cls-10" width="2170" height="1080"/>
    <g id="Group_239" data-name="Group 239" transform="translate(111.127 -0.892)">
      <g id="Path_811" data-name="Path 811" class="cls-2" transform="translate(1147.505 217.461)">
        <path class="cls-8" d="M369.56,226.307C412.387,93.214,485.329-77.19,582.952-77.19S867.346,49.965,905.989,236.215,711,745,711,745,197.28,1009.323-7.413,1009.323c-90.884,0-129.9-23.476-140.027-59.046-12.607-44.259-7.229-76.8,53.058-166.741C-16.493,682.811,126.912,668.4,231.778,533.748,308.084,435.767,329.222,332.494,369.56,226.307Z"/>
        <path class="cls-9" d="M 582.9522094726562 -67.19049072265625 C 512.0069580078125 -67.19049072265625 441.5086669921875 35.3583984375 378.9077453613281 229.857666015625 C 369.1994323730469 255.4144287109375 360.4734497070312 281.20703125 352.0348205566406 306.1505737304688 C 324.5169677734375 387.4885864257812 298.5251159667969 464.3157958984375 239.6680297851562 539.8923950195312 C 182.2649536132812 613.6019287109375 112.5286865234375 652.63916015625 51.0015869140625 687.0811767578125 C -1.73333740234375 716.601318359375 -51.54351806640625 744.4842529296875 -86.07623291015625 789.1039428710938 C -147.3550415039062 880.52392578125 -148.8615112304688 908.7860717773438 -137.8231811523438 947.5374755859375 C -127.8971557617188 982.3839721679688 -85.23980712890625 999.3231811523438 -7.4132080078125 999.3231811523438 C 185.8828125 999.3231811523438 667.861083984375 755.758056640625 704.277587890625 737.2051391601562 C 723.3865356445312 710.255126953125 931.990966796875 410.7606811523438 896.19775390625 238.2463989257812 C 860.0385131835938 63.96826171875 681.2432861328125 -67.19049072265625 582.9522094726562 -67.19049072265625 M 582.9522094726562 -77.19049072265625 C 680.5757446289062 -77.19049072265625 867.3460693359375 49.96484375 905.9892578125 236.21484375 C 944.63232421875 422.4648742675781 711.0000610351562 744.9999389648438 711.0000610351562 744.9999389648438 C 711.0000610351562 744.9999389648438 197.2796020507812 1009.323181152344 -7.4132080078125 1009.323181152344 C -98.29669189453125 1009.323181152344 -137.3084106445312 985.84765625 -147.4405517578125 950.2770385742188 C -160.0477905273438 906.017822265625 -154.669921875 873.4765625 -94.38287353515625 783.5361328125 C -16.4931640625 682.810546875 126.9119262695312 668.4039306640625 231.7783813476562 533.7481079101562 C 308.0835876464844 435.7668762207031 329.2217407226562 332.4940795898438 369.5596008300781 226.3065795898438 C 412.3866577148438 93.214111328125 485.3286743164062 -77.19049072265625 582.9522094726562 -77.19049072265625 Z"/>
      </g>
      <path id="Path_810" data-name="Path 810" class="cls-3" d="M369.56,226.307C412.387,93.214,485.329-77.19,582.952-77.19S736.97,40.057,775.613,226.307,711,745,711,745H-107.771s234.682-76.6,339.549-211.252C308.084,435.767,329.222,332.494,369.56,226.307Z" transform="translate(1209 335)"/>
      <g id="Group_232" data-name="Group 232" transform="translate(1388.426 608.867)">
        <circle id="Ellipse_267" data-name="Ellipse 267" class="cls-4" cx="6" cy="6" r="6" transform="translate(119.574 268.134)"/>
        <circle id="Ellipse_268" data-name="Ellipse 268" class="cls-4" cx="6" cy="6" r="6" transform="translate(149.574 268.134)"/>
        <circle id="Ellipse_271" data-name="Ellipse 271" class="cls-4" cx="6" cy="6" r="6" transform="translate(178.574 268.134)"/>
        <circle id="Ellipse_272" data-name="Ellipse 272" class="cls-4" cx="6" cy="6" r="6" transform="translate(207.574 268.134)"/>
        <circle id="Ellipse_273" data-name="Ellipse 273" class="cls-4" cx="6" cy="6" r="6" transform="translate(119.574 297.134)"/>
        <circle id="Ellipse_274" data-name="Ellipse 274" class="cls-4" cx="6" cy="6" r="6" transform="translate(149.574 297.134)"/>
        <circle id="Ellipse_275" data-name="Ellipse 275" class="cls-4" cx="6" cy="6" r="6" transform="translate(178.574 297.134)"/>
        <circle id="Ellipse_276" data-name="Ellipse 276" class="cls-4" cx="6" cy="6" r="6" transform="translate(207.574 297.134)"/>
        <ellipse id="Ellipse_277" data-name="Ellipse 277" class="cls-4" cx="6" cy="5.5" rx="6" ry="5.5" transform="translate(119.574 327.134)"/>
        <ellipse id="Ellipse_278" data-name="Ellipse 278" class="cls-4" cx="6" cy="5.5" rx="6" ry="5.5" transform="translate(149.574 327.134)"/>
        <ellipse id="Ellipse_279" data-name="Ellipse 279" class="cls-4" cx="6" cy="5.5" rx="6" ry="5.5" transform="translate(178.574 327.134)"/>
        <ellipse id="Ellipse_280" data-name="Ellipse 280" class="cls-4" cx="6" cy="5.5" rx="6" ry="5.5" transform="translate(207.574 327.134)"/>
        <circle id="Ellipse_281" data-name="Ellipse 281" class="cls-4" cx="6" cy="6" r="6" transform="translate(119.574 356.134)"/>
        <circle id="Ellipse_282" data-name="Ellipse 282" class="cls-4" cx="6" cy="6" r="6" transform="translate(149.574 356.134)"/>
        <circle id="Ellipse_283" data-name="Ellipse 283" class="cls-4" cx="6" cy="6" r="6" transform="translate(178.574 356.134)"/>
        <circle id="Ellipse_284" data-name="Ellipse 284" class="cls-4" cx="6" cy="6" r="6" transform="translate(207.574 356.134)"/>
        <circle id="Ellipse_285" data-name="Ellipse 285" class="cls-4" cx="6" cy="6" r="6" transform="translate(119.574 385.134)"/>
        <circle id="Ellipse_286" data-name="Ellipse 286" class="cls-4" cx="6" cy="6" r="6" transform="translate(149.574 385.134)"/>
        <circle id="Ellipse_287" data-name="Ellipse 287" class="cls-4" cx="6" cy="6" r="6" transform="translate(178.574 385.134)"/>
        <circle id="Ellipse_288" data-name="Ellipse 288" class="cls-4" cx="6" cy="6" r="6" transform="translate(207.574 385.134)"/>
        <circle id="Ellipse_289" data-name="Ellipse 289" class="cls-4" cx="6" cy="6" r="6" transform="translate(237.574 268.134)"/>
        <circle id="Ellipse_290" data-name="Ellipse 290" class="cls-4" cx="6" cy="6" r="6" transform="translate(266.574 268.134)"/>
        <ellipse id="Ellipse_291" data-name="Ellipse 291" class="cls-4" cx="5.5" cy="6" rx="5.5" ry="6" transform="translate(296.574 268.134)"/>
        <circle id="Ellipse_292" data-name="Ellipse 292" class="cls-4" cx="6" cy="6" r="6" transform="translate(325.574 268.134)"/>
        <circle id="Ellipse_293" data-name="Ellipse 293" class="cls-4" cx="6" cy="6" r="6" transform="translate(237.574 297.134)"/>
        <circle id="Ellipse_294" data-name="Ellipse 294" class="cls-4" cx="6" cy="6" r="6" transform="translate(266.574 297.134)"/>
        <ellipse id="Ellipse_295" data-name="Ellipse 295" class="cls-4" cx="5.5" cy="6" rx="5.5" ry="6" transform="translate(296.574 297.134)"/>
        <circle id="Ellipse_296" data-name="Ellipse 296" class="cls-4" cx="6" cy="6" r="6" transform="translate(325.574 297.134)"/>
        <ellipse id="Ellipse_297" data-name="Ellipse 297" class="cls-4" cx="6" cy="5.5" rx="6" ry="5.5" transform="translate(237.574 327.134)"/>
        <ellipse id="Ellipse_298" data-name="Ellipse 298" class="cls-4" cx="6" cy="5.5" rx="6" ry="5.5" transform="translate(266.574 327.134)"/>
        <circle id="Ellipse_299" data-name="Ellipse 299" class="cls-4" cx="5.5" cy="5.5" r="5.5" transform="translate(296.574 327.134)"/>
        <ellipse id="Ellipse_300" data-name="Ellipse 300" class="cls-4" cx="6" cy="5.5" rx="6" ry="5.5" transform="translate(325.574 327.134)"/>
        <circle id="Ellipse_301" data-name="Ellipse 301" class="cls-4" cx="6" cy="6" r="6" transform="translate(237.574 356.134)"/>
        <circle id="Ellipse_302" data-name="Ellipse 302" class="cls-4" cx="6" cy="6" r="6" transform="translate(266.574 356.134)"/>
        <ellipse id="Ellipse_303" data-name="Ellipse 303" class="cls-4" cx="5.5" cy="6" rx="5.5" ry="6" transform="translate(296.574 356.134)"/>
        <circle id="Ellipse_304" data-name="Ellipse 304" class="cls-4" cx="6" cy="6" r="6" transform="translate(325.574 356.134)"/>
        <circle id="Ellipse_305" data-name="Ellipse 305" class="cls-4" cx="6" cy="6" r="6" transform="translate(237.574 385.134)"/>
        <circle id="Ellipse_306" data-name="Ellipse 306" class="cls-4" cx="6" cy="6" r="6" transform="translate(266.574 385.134)"/>
        <ellipse id="Ellipse_307" data-name="Ellipse 307" class="cls-4" cx="5.5" cy="6" rx="5.5" ry="6" transform="translate(296.574 385.134)"/>
        <circle id="Ellipse_308" data-name="Ellipse 308" class="cls-4" cx="6" cy="6" r="6" transform="translate(325.574 385.134)"/>
        <circle id="Ellipse_309" data-name="Ellipse 309" class="cls-4" cx="6" cy="6" r="6" transform="translate(354.574 268.134)"/>
        <ellipse id="Ellipse_310" data-name="Ellipse 310" class="cls-4" cx="5.5" cy="6" rx="5.5" ry="6" transform="translate(384.574 268.134)"/>
        <circle id="Ellipse_311" data-name="Ellipse 311" class="cls-4" cx="6" cy="6" r="6" transform="translate(413.574 268.134)"/>
        <circle id="Ellipse_312" data-name="Ellipse 312" class="cls-4" cx="6" cy="6" r="6" transform="translate(442.574 268.134)"/>
        <circle id="Ellipse_313" data-name="Ellipse 313" class="cls-4" cx="6" cy="6" r="6" transform="translate(354.574 297.134)"/>
        <ellipse id="Ellipse_314" data-name="Ellipse 314" class="cls-4" cx="5.5" cy="6" rx="5.5" ry="6" transform="translate(384.574 297.134)"/>
        <circle id="Ellipse_315" data-name="Ellipse 315" class="cls-4" cx="6" cy="6" r="6" transform="translate(413.574 297.134)"/>
        <circle id="Ellipse_316" data-name="Ellipse 316" class="cls-4" cx="6" cy="6" r="6" transform="translate(442.574 297.134)"/>
        <ellipse id="Ellipse_317" data-name="Ellipse 317" class="cls-4" cx="6" cy="5.5" rx="6" ry="5.5" transform="translate(354.574 327.134)"/>
        <circle id="Ellipse_318" data-name="Ellipse 318" class="cls-4" cx="5.5" cy="5.5" r="5.5" transform="translate(384.574 327.134)"/>
        <ellipse id="Ellipse_319" data-name="Ellipse 319" class="cls-4" cx="6" cy="5.5" rx="6" ry="5.5" transform="translate(413.574 327.134)"/>
        <ellipse id="Ellipse_320" data-name="Ellipse 320" class="cls-4" cx="6" cy="5.5" rx="6" ry="5.5" transform="translate(442.574 327.134)"/>
        <circle id="Ellipse_321" data-name="Ellipse 321" class="cls-4" cx="6" cy="6" r="6" transform="translate(354.574 356.134)"/>
        <ellipse id="Ellipse_322" data-name="Ellipse 322" class="cls-4" cx="5.5" cy="6" rx="5.5" ry="6" transform="translate(384.574 356.134)"/>
        <circle id="Ellipse_323" data-name="Ellipse 323" class="cls-4" cx="6" cy="6" r="6" transform="translate(413.574 356.134)"/>
        <circle id="Ellipse_324" data-name="Ellipse 324" class="cls-4" cx="6" cy="6" r="6" transform="translate(442.574 356.134)"/>
        <circle id="Ellipse_325" data-name="Ellipse 325" class="cls-4" cx="6" cy="6" r="6" transform="translate(354.574 385.134)"/>
        <ellipse id="Ellipse_326" data-name="Ellipse 326" class="cls-4" cx="5.5" cy="6" rx="5.5" ry="6" transform="translate(384.574 385.134)"/>
        <circle id="Ellipse_327" data-name="Ellipse 327" class="cls-4" cx="6" cy="6" r="6" transform="translate(413.574 385.134)"/>
        <circle id="Ellipse_328" data-name="Ellipse 328" class="cls-4" cx="6" cy="6" r="6" transform="translate(442.574 385.134)"/>
      </g>
      <g id="Group_233" data-name="Group 233" transform="translate(-20)">
        <rect id="Rectangle_838" data-name="Rectangle 838" class="cls-5" width="15" height="209" transform="translate(1723 482)"/>
        <rect id="Rectangle_839" data-name="Rectangle 839" class="cls-5" width="15" height="209" transform="translate(1748 482)"/>
        <rect id="Rectangle_840" data-name="Rectangle 840" class="cls-5" width="65" height="17" transform="translate(1723 755)"/>
        <rect id="Rectangle_841" data-name="Rectangle 841" class="cls-5" width="15" height="209" transform="translate(1773 482)"/>
        <rect id="Rectangle_842" data-name="Rectangle 842" class="cls-5" width="65" height="17" transform="translate(1723 701)"/>
        <rect id="Rectangle_843" data-name="Rectangle 843" class="cls-5" width="65" height="17" transform="translate(1723 728)"/>
      </g>
      <path id="Path_812" data-name="Path 812" class="cls-3" d="M128.02,177.779c174.547-124.342,698.189,0,698.189,0s61.642-15.849,61.642,144.4S624.577,481.46,537.175,538.794s-83.82,234.883-254.82,234.883S-46.528,302.122,128.02,177.779Z" transform="translate(-104 -190.287)"/>
      <g id="Path_813" data-name="Path 813" class="cls-2" transform="translate(11.763 -286.527)">
        <path class="cls-8" d="M-4.728,213.876l830.937-36.1s61.642-15.849,61.642,144.4S624.577,481.46,537.175,538.794,390.4,852.489,229.164,850.264-122.89,568.734-122.89,444.391-4.728,213.876-4.728,213.876Z"/>
        <path class="cls-9" d="M 830.6967163085938 187.34716796875 C 829.3966064453125 187.34716796875 828.5903930664062 187.49462890625 828.6716918945312 187.4713745117188 L 827.68603515625 187.7244873046875 L -0.59222412109375 223.7053833007812 C -17.537109375 239.9208374023438 -112.8899536132812 336.029296875 -112.8899536132812 444.3912963867188 C -112.8899536132812 570.39306640625 78.81829833984375 838.1889038085938 229.3009643554688 840.2652587890625 L 231.246826171875 840.2787475585938 C 326.8297729492188 840.2787475585938 385.8805847167969 740.9879760742188 437.9800415039062 653.3855590820312 C 468.8124389648438 601.542724609375 497.9348449707031 552.5750732421875 531.68994140625 530.4324951171875 C 560.398193359375 511.6003723144531 606.3475341796875 499.0055541992188 654.9946899414062 485.6712646484375 C 759.4539184570312 457.0388793945312 877.8505859375 424.5861206054688 877.8505859375 322.1806030273438 C 877.8505859375 193.8477172851562 838.5708618164062 187.34716796875 830.6967163085938 187.34716796875 M 830.6966552734375 177.3471069335938 C 844.8846435546875 177.3471069335938 887.8505859375 188.387939453125 887.8505859375 322.1806030273438 C 887.8505859375 482.4306030273438 624.5771484375 481.4599609375 537.1748657226562 538.7939453125 C 449.7724609375 596.1279296875 390.4063110351562 852.4881591796875 229.1636352539062 850.2643432617188 C 67.9298095703125 848.03955078125 -122.8899536132812 568.7337036132812 -122.8899536132812 444.3912963867188 C -122.8899536132812 320.0490112304688 -4.72833251953125 213.8756713867188 -4.72833251953125 213.8756713867188 L 826.208984375 177.779296875 C 826.208984375 177.779296875 827.8909912109375 177.3471069335938 830.6966552734375 177.3471069335938 Z"/>
      </g>
      <g id="Group_235" data-name="Group 235" transform="translate(527.134 -59.689) rotate(90)">
        <circle id="Ellipse_267-2" data-name="Ellipse 267" class="cls-4" cx="4.5" cy="4.5" r="4.5" transform="translate(119.69 268.134)"/>
        <circle id="Ellipse_268-2" data-name="Ellipse 268" class="cls-4" cx="4.5" cy="4.5" r="4.5" transform="translate(142.69 268.134)"/>
        <circle id="Ellipse_271-2" data-name="Ellipse 271" class="cls-4" cx="4.5" cy="4.5" r="4.5" transform="translate(165.69 268.134)"/>
        <ellipse id="Ellipse_272-2" data-name="Ellipse 272" class="cls-4" cx="5" cy="4.5" rx="5" ry="4.5" transform="translate(187.69 268.134)"/>
        <circle id="Ellipse_273-2" data-name="Ellipse 273" class="cls-4" cx="4.5" cy="4.5" r="4.5" transform="translate(119.69 291.134)"/>
        <circle id="Ellipse_274-2" data-name="Ellipse 274" class="cls-4" cx="4.5" cy="4.5" r="4.5" transform="translate(142.69 291.134)"/>
        <circle id="Ellipse_275-2" data-name="Ellipse 275" class="cls-4" cx="4.5" cy="4.5" r="4.5" transform="translate(165.69 291.134)"/>
        <ellipse id="Ellipse_276-2" data-name="Ellipse 276" class="cls-4" cx="5" cy="4.5" rx="5" ry="4.5" transform="translate(187.69 291.134)"/>
        <ellipse id="Ellipse_277-2" data-name="Ellipse 277" class="cls-4" cx="4.5" cy="4" rx="4.5" ry="4" transform="translate(119.69 314.134)"/>
        <ellipse id="Ellipse_278-2" data-name="Ellipse 278" class="cls-4" cx="4.5" cy="4" rx="4.5" ry="4" transform="translate(142.69 314.134)"/>
        <ellipse id="Ellipse_279-2" data-name="Ellipse 279" class="cls-4" cx="4.5" cy="4" rx="4.5" ry="4" transform="translate(165.69 314.134)"/>
        <ellipse id="Ellipse_280-2" data-name="Ellipse 280" class="cls-4" cx="5" cy="4" rx="5" ry="4" transform="translate(187.69 314.134)"/>
        <ellipse id="Ellipse_281-2" data-name="Ellipse 281" class="cls-4" cx="4.5" cy="5" rx="4.5" ry="5" transform="translate(119.69 336.134)"/>
        <ellipse id="Ellipse_282-2" data-name="Ellipse 282" class="cls-4" cx="4.5" cy="5" rx="4.5" ry="5" transform="translate(142.69 336.134)"/>
        <ellipse id="Ellipse_283-2" data-name="Ellipse 283" class="cls-4" cx="4.5" cy="5" rx="4.5" ry="5" transform="translate(165.69 336.134)"/>
        <circle id="Ellipse_284-2" data-name="Ellipse 284" class="cls-4" cx="5" cy="5" r="5" transform="translate(187.69 336.134)"/>
        <circle id="Ellipse_285-2" data-name="Ellipse 285" class="cls-4" cx="4.5" cy="4.5" r="4.5" transform="translate(119.69 359.134)"/>
        <circle id="Ellipse_286-2" data-name="Ellipse 286" class="cls-4" cx="4.5" cy="4.5" r="4.5" transform="translate(142.69 359.134)"/>
        <circle id="Ellipse_287-2" data-name="Ellipse 287" class="cls-4" cx="4.5" cy="4.5" r="4.5" transform="translate(165.69 359.134)"/>
        <ellipse id="Ellipse_288-2" data-name="Ellipse 288" class="cls-4" cx="5" cy="4.5" rx="5" ry="4.5" transform="translate(187.69 359.134)"/>
        <circle id="Ellipse_289-2" data-name="Ellipse 289" class="cls-4" cx="4.5" cy="4.5" r="4.5" transform="translate(211.69 268.134)"/>
        <circle id="Ellipse_290-2" data-name="Ellipse 290" class="cls-4" cx="4.5" cy="4.5" r="4.5" transform="translate(233.69 268.134)"/>
        <circle id="Ellipse_291-2" data-name="Ellipse 291" class="cls-4" cx="4.5" cy="4.5" r="4.5" transform="translate(256.69 268.134)"/>
        <circle id="Ellipse_292-2" data-name="Ellipse 292" class="cls-4" cx="4.5" cy="4.5" r="4.5" transform="translate(279.69 268.134)"/>
        <circle id="Ellipse_293-2" data-name="Ellipse 293" class="cls-4" cx="4.5" cy="4.5" r="4.5" transform="translate(211.69 291.134)"/>
        <circle id="Ellipse_294-2" data-name="Ellipse 294" class="cls-4" cx="4.5" cy="4.5" r="4.5" transform="translate(233.69 291.134)"/>
        <circle id="Ellipse_295-2" data-name="Ellipse 295" class="cls-4" cx="4.5" cy="4.5" r="4.5" transform="translate(256.69 291.134)"/>
        <circle id="Ellipse_296-2" data-name="Ellipse 296" class="cls-4" cx="4.5" cy="4.5" r="4.5" transform="translate(279.69 291.134)"/>
        <ellipse id="Ellipse_297-2" data-name="Ellipse 297" class="cls-4" cx="4.5" cy="4" rx="4.5" ry="4" transform="translate(211.69 314.134)"/>
        <ellipse id="Ellipse_298-2" data-name="Ellipse 298" class="cls-4" cx="4.5" cy="4" rx="4.5" ry="4" transform="translate(233.69 314.134)"/>
        <ellipse id="Ellipse_299-2" data-name="Ellipse 299" class="cls-4" cx="4.5" cy="4" rx="4.5" ry="4" transform="translate(256.69 314.134)"/>
        <ellipse id="Ellipse_300-2" data-name="Ellipse 300" class="cls-4" cx="4.5" cy="4" rx="4.5" ry="4" transform="translate(279.69 314.134)"/>
        <ellipse id="Ellipse_301-2" data-name="Ellipse 301" class="cls-4" cx="4.5" cy="5" rx="4.5" ry="5" transform="translate(211.69 336.134)"/>
        <ellipse id="Ellipse_302-2" data-name="Ellipse 302" class="cls-4" cx="4.5" cy="5" rx="4.5" ry="5" transform="translate(233.69 336.134)"/>
        <ellipse id="Ellipse_303-2" data-name="Ellipse 303" class="cls-4" cx="4.5" cy="5" rx="4.5" ry="5" transform="translate(256.69 336.134)"/>
        <ellipse id="Ellipse_304-2" data-name="Ellipse 304" class="cls-4" cx="4.5" cy="5" rx="4.5" ry="5" transform="translate(279.69 336.134)"/>
        <circle id="Ellipse_305-2" data-name="Ellipse 305" class="cls-4" cx="4.5" cy="4.5" r="4.5" transform="translate(211.69 359.134)"/>
        <circle id="Ellipse_306-2" data-name="Ellipse 306" class="cls-4" cx="4.5" cy="4.5" r="4.5" transform="translate(233.69 359.134)"/>
        <circle id="Ellipse_307-2" data-name="Ellipse 307" class="cls-4" cx="4.5" cy="4.5" r="4.5" transform="translate(256.69 359.134)"/>
        <circle id="Ellipse_308-2" data-name="Ellipse 308" class="cls-4" cx="4.5" cy="4.5" r="4.5" transform="translate(279.69 359.134)"/>
        <ellipse id="Ellipse_309-2" data-name="Ellipse 309" class="cls-4" cx="5" cy="4.5" rx="5" ry="4.5" transform="translate(301.69 268.134)"/>
        <ellipse id="Ellipse_310-2" data-name="Ellipse 310" class="cls-4" cx="4" cy="4.5" rx="4" ry="4.5" transform="translate(325.69 268.134)"/>
        <circle id="Ellipse_311-2" data-name="Ellipse 311" class="cls-4" cx="4.5" cy="4.5" r="4.5" transform="translate(347.69 268.134)"/>
        <circle id="Ellipse_312-2" data-name="Ellipse 312" class="cls-4" cx="4.5" cy="4.5" r="4.5" transform="translate(370.69 268.134)"/>
        <ellipse id="Ellipse_313-2" data-name="Ellipse 313" class="cls-4" cx="5" cy="4.5" rx="5" ry="4.5" transform="translate(301.69 291.134)"/>
        <ellipse id="Ellipse_314-2" data-name="Ellipse 314" class="cls-4" cx="4" cy="4.5" rx="4" ry="4.5" transform="translate(325.69 291.134)"/>
        <circle id="Ellipse_315-2" data-name="Ellipse 315" class="cls-4" cx="4.5" cy="4.5" r="4.5" transform="translate(347.69 291.134)"/>
        <circle id="Ellipse_316-2" data-name="Ellipse 316" class="cls-4" cx="4.5" cy="4.5" r="4.5" transform="translate(370.69 291.134)"/>
        <ellipse id="Ellipse_317-2" data-name="Ellipse 317" class="cls-4" cx="5" cy="4" rx="5" ry="4" transform="translate(301.69 314.134)"/>
        <circle id="Ellipse_318-2" data-name="Ellipse 318" class="cls-4" cx="4" cy="4" r="4" transform="translate(325.69 314.134)"/>
        <ellipse id="Ellipse_319-2" data-name="Ellipse 319" class="cls-4" cx="4.5" cy="4" rx="4.5" ry="4" transform="translate(347.69 314.134)"/>
        <ellipse id="Ellipse_320-2" data-name="Ellipse 320" class="cls-4" cx="4.5" cy="4" rx="4.5" ry="4" transform="translate(370.69 314.134)"/>
        <circle id="Ellipse_321-2" data-name="Ellipse 321" class="cls-4" cx="5" cy="5" r="5" transform="translate(301.69 336.134)"/>
        <ellipse id="Ellipse_322-2" data-name="Ellipse 322" class="cls-4" cx="4" cy="5" rx="4" ry="5" transform="translate(325.69 336.134)"/>
        <ellipse id="Ellipse_323-2" data-name="Ellipse 323" class="cls-4" cx="4.5" cy="5" rx="4.5" ry="5" transform="translate(347.69 336.134)"/>
        <ellipse id="Ellipse_324-2" data-name="Ellipse 324" class="cls-4" cx="4.5" cy="5" rx="4.5" ry="5" transform="translate(370.69 336.134)"/>
        <ellipse id="Ellipse_325-2" data-name="Ellipse 325" class="cls-4" cx="5" cy="4.5" rx="5" ry="4.5" transform="translate(301.69 359.134)"/>
        <ellipse id="Ellipse_326-2" data-name="Ellipse 326" class="cls-4" cx="4" cy="4.5" rx="4" ry="4.5" transform="translate(325.69 359.134)"/>
        <circle id="Ellipse_327-2" data-name="Ellipse 327" class="cls-4" cx="4.5" cy="4.5" r="4.5" transform="translate(347.69 359.134)"/>
        <circle id="Ellipse_328-2" data-name="Ellipse 328" class="cls-4" cx="4.5" cy="4.5" r="4.5" transform="translate(370.69 359.134)"/>
      </g>
      <g id="Group_234" data-name="Group 234" transform="translate(-49 -327)">
        <rect id="Rectangle_832" data-name="Rectangle 832" class="cls-5" width="15" height="209" transform="translate(608 182)"/>
        <rect id="Rectangle_833" data-name="Rectangle 833" class="cls-5" width="15" height="209" transform="translate(633 182)"/>
        <rect id="Rectangle_834" data-name="Rectangle 834" class="cls-5" width="65" height="17" transform="translate(608 455)"/>
        <rect id="Rectangle_835" data-name="Rectangle 835" class="cls-5" width="15" height="209" transform="translate(658 182)"/>
        <rect id="Rectangle_836" data-name="Rectangle 836" class="cls-5" width="65" height="17" transform="translate(608 401)"/>
        <rect id="Rectangle_837" data-name="Rectangle 837" class="cls-5" width="65" height="17" transform="translate(608 428)"/>
      </g>
      <g id="Group_236" data-name="Group 236" transform="translate(500.064 633.49) rotate(90)">
        <circle id="Ellipse_267-3" data-name="Ellipse 267" class="cls-6" cx="6.5" cy="6.5" r="6.5" transform="translate(119.509 268.064)"/>
        <circle id="Ellipse_268-3" data-name="Ellipse 268" class="cls-6" cx="6.5" cy="6.5" r="6.5" transform="translate(153.509 268.064)"/>
        <circle id="Ellipse_271-3" data-name="Ellipse 271" class="cls-6" cx="6.5" cy="6.5" r="6.5" transform="translate(186.509 268.064)"/>
        <ellipse id="Ellipse_272-3" data-name="Ellipse 272" class="cls-6" cx="7" cy="6.5" rx="7" ry="6.5" transform="translate(218.509 268.064)"/>
        <circle id="Ellipse_273-3" data-name="Ellipse 273" class="cls-6" cx="6.5" cy="6.5" r="6.5" transform="translate(119.509 301.064)"/>
        <circle id="Ellipse_274-3" data-name="Ellipse 274" class="cls-6" cx="6.5" cy="6.5" r="6.5" transform="translate(153.509 301.064)"/>
        <circle id="Ellipse_275-3" data-name="Ellipse 275" class="cls-6" cx="6.5" cy="6.5" r="6.5" transform="translate(186.509 301.064)"/>
        <ellipse id="Ellipse_276-3" data-name="Ellipse 276" class="cls-6" cx="7" cy="6.5" rx="7" ry="6.5" transform="translate(218.509 301.064)"/>
        <ellipse id="Ellipse_277-3" data-name="Ellipse 277" class="cls-6" cx="6.5" cy="5.5" rx="6.5" ry="5.5" transform="translate(119.509 335.064)"/>
        <ellipse id="Ellipse_278-3" data-name="Ellipse 278" class="cls-6" cx="6.5" cy="5.5" rx="6.5" ry="5.5" transform="translate(153.509 335.064)"/>
        <ellipse id="Ellipse_279-3" data-name="Ellipse 279" class="cls-6" cx="6.5" cy="5.5" rx="6.5" ry="5.5" transform="translate(186.509 335.064)"/>
        <ellipse id="Ellipse_280-3" data-name="Ellipse 280" class="cls-6" cx="7" cy="5.5" rx="7" ry="5.5" transform="translate(218.509 335.064)"/>
        <ellipse id="Ellipse_281-3" data-name="Ellipse 281" class="cls-6" cx="6.5" cy="7" rx="6.5" ry="7" transform="translate(119.509 367.064)"/>
        <ellipse id="Ellipse_282-3" data-name="Ellipse 282" class="cls-6" cx="6.5" cy="7" rx="6.5" ry="7" transform="translate(153.509 367.064)"/>
        <ellipse id="Ellipse_283-3" data-name="Ellipse 283" class="cls-6" cx="6.5" cy="7" rx="6.5" ry="7" transform="translate(186.509 367.064)"/>
        <circle id="Ellipse_284-3" data-name="Ellipse 284" class="cls-6" cx="7" cy="7" r="7" transform="translate(218.509 367.064)"/>
        <circle id="Ellipse_285-3" data-name="Ellipse 285" class="cls-6" cx="6.5" cy="6.5" r="6.5" transform="translate(119.509 400.064)"/>
        <circle id="Ellipse_286-3" data-name="Ellipse 286" class="cls-6" cx="6.5" cy="6.5" r="6.5" transform="translate(153.509 400.064)"/>
        <circle id="Ellipse_287-3" data-name="Ellipse 287" class="cls-6" cx="6.5" cy="6.5" r="6.5" transform="translate(186.509 400.064)"/>
        <ellipse id="Ellipse_288-3" data-name="Ellipse 288" class="cls-6" cx="7" cy="6.5" rx="7" ry="6.5" transform="translate(218.509 400.064)"/>
        <circle id="Ellipse_289-3" data-name="Ellipse 289" class="cls-6" cx="6.5" cy="6.5" r="6.5" transform="translate(253.509 268.064)"/>
        <circle id="Ellipse_290-3" data-name="Ellipse 290" class="cls-6" cx="6.5" cy="6.5" r="6.5" transform="translate(284.509 268.064)"/>
        <circle id="Ellipse_291-3" data-name="Ellipse 291" class="cls-6" cx="6.5" cy="6.5" r="6.5" transform="translate(318.509 268.064)"/>
        <circle id="Ellipse_292-3" data-name="Ellipse 292" class="cls-6" cx="6.5" cy="6.5" r="6.5" transform="translate(351.509 268.064)"/>
        <circle id="Ellipse_293-3" data-name="Ellipse 293" class="cls-6" cx="6.5" cy="6.5" r="6.5" transform="translate(253.509 301.064)"/>
        <circle id="Ellipse_294-3" data-name="Ellipse 294" class="cls-6" cx="6.5" cy="6.5" r="6.5" transform="translate(284.509 301.064)"/>
        <circle id="Ellipse_295-3" data-name="Ellipse 295" class="cls-6" cx="6.5" cy="6.5" r="6.5" transform="translate(318.509 301.064)"/>
        <circle id="Ellipse_296-3" data-name="Ellipse 296" class="cls-6" cx="6.5" cy="6.5" r="6.5" transform="translate(351.509 301.064)"/>
        <ellipse id="Ellipse_297-3" data-name="Ellipse 297" class="cls-6" cx="6.5" cy="5.5" rx="6.5" ry="5.5" transform="translate(253.509 335.064)"/>
        <ellipse id="Ellipse_298-3" data-name="Ellipse 298" class="cls-6" cx="6.5" cy="5.5" rx="6.5" ry="5.5" transform="translate(284.509 335.064)"/>
        <ellipse id="Ellipse_299-3" data-name="Ellipse 299" class="cls-6" cx="6.5" cy="5.5" rx="6.5" ry="5.5" transform="translate(318.509 335.064)"/>
        <ellipse id="Ellipse_300-3" data-name="Ellipse 300" class="cls-6" cx="6.5" cy="5.5" rx="6.5" ry="5.5" transform="translate(351.509 335.064)"/>
        <ellipse id="Ellipse_301-3" data-name="Ellipse 301" class="cls-6" cx="6.5" cy="7" rx="6.5" ry="7" transform="translate(253.509 367.064)"/>
        <ellipse id="Ellipse_302-3" data-name="Ellipse 302" class="cls-6" cx="6.5" cy="7" rx="6.5" ry="7" transform="translate(284.509 367.064)"/>
        <ellipse id="Ellipse_303-3" data-name="Ellipse 303" class="cls-6" cx="6.5" cy="7" rx="6.5" ry="7" transform="translate(318.509 367.064)"/>
        <ellipse id="Ellipse_304-3" data-name="Ellipse 304" class="cls-6" cx="6.5" cy="7" rx="6.5" ry="7" transform="translate(351.509 367.064)"/>
        <circle id="Ellipse_305-3" data-name="Ellipse 305" class="cls-6" cx="6.5" cy="6.5" r="6.5" transform="translate(253.509 400.064)"/>
        <circle id="Ellipse_306-3" data-name="Ellipse 306" class="cls-6" cx="6.5" cy="6.5" r="6.5" transform="translate(284.509 400.064)"/>
        <circle id="Ellipse_307-3" data-name="Ellipse 307" class="cls-6" cx="6.5" cy="6.5" r="6.5" transform="translate(318.509 400.064)"/>
        <circle id="Ellipse_308-3" data-name="Ellipse 308" class="cls-6" cx="6.5" cy="6.5" r="6.5" transform="translate(351.509 400.064)"/>
        <ellipse id="Ellipse_309-3" data-name="Ellipse 309" class="cls-6" cx="7" cy="6.5" rx="7" ry="6.5" transform="translate(383.509 268.064)"/>
        <ellipse id="Ellipse_310-3" data-name="Ellipse 310" class="cls-6" cx="5.5" cy="6.5" rx="5.5" ry="6.5" transform="translate(418.509 268.064)"/>
        <circle id="Ellipse_311-3" data-name="Ellipse 311" class="cls-6" cx="6.5" cy="6.5" r="6.5" transform="translate(450.509 268.064)"/>
        <circle id="Ellipse_312-3" data-name="Ellipse 312" class="cls-6" cx="6.5" cy="6.5" r="6.5" transform="translate(483.509 268.064)"/>
        <ellipse id="Ellipse_313-3" data-name="Ellipse 313" class="cls-6" cx="7" cy="6.5" rx="7" ry="6.5" transform="translate(383.509 301.064)"/>
        <ellipse id="Ellipse_314-3" data-name="Ellipse 314" class="cls-6" cx="5.5" cy="6.5" rx="5.5" ry="6.5" transform="translate(418.509 301.064)"/>
        <circle id="Ellipse_315-3" data-name="Ellipse 315" class="cls-6" cx="6.5" cy="6.5" r="6.5" transform="translate(450.509 301.064)"/>
        <circle id="Ellipse_316-3" data-name="Ellipse 316" class="cls-6" cx="6.5" cy="6.5" r="6.5" transform="translate(483.509 301.064)"/>
        <ellipse id="Ellipse_317-3" data-name="Ellipse 317" class="cls-6" cx="7" cy="5.5" rx="7" ry="5.5" transform="translate(383.509 335.064)"/>
        <circle id="Ellipse_318-3" data-name="Ellipse 318" class="cls-6" cx="5.5" cy="5.5" r="5.5" transform="translate(418.509 335.064)"/>
        <ellipse id="Ellipse_319-3" data-name="Ellipse 319" class="cls-6" cx="6.5" cy="5.5" rx="6.5" ry="5.5" transform="translate(450.509 335.064)"/>
        <ellipse id="Ellipse_320-3" data-name="Ellipse 320" class="cls-6" cx="6.5" cy="5.5" rx="6.5" ry="5.5" transform="translate(483.509 335.064)"/>
        <circle id="Ellipse_321-3" data-name="Ellipse 321" class="cls-6" cx="7" cy="7" r="7" transform="translate(383.509 367.064)"/>
        <ellipse id="Ellipse_322-3" data-name="Ellipse 322" class="cls-6" cx="5.5" cy="7" rx="5.5" ry="7" transform="translate(418.509 367.064)"/>
        <ellipse id="Ellipse_323-3" data-name="Ellipse 323" class="cls-6" cx="6.5" cy="7" rx="6.5" ry="7" transform="translate(450.509 367.064)"/>
        <ellipse id="Ellipse_324-3" data-name="Ellipse 324" class="cls-6" cx="6.5" cy="7" rx="6.5" ry="7" transform="translate(483.509 367.064)"/>
        <ellipse id="Ellipse_325-3" data-name="Ellipse 325" class="cls-6" cx="7" cy="6.5" rx="7" ry="6.5" transform="translate(383.509 400.064)"/>
        <ellipse id="Ellipse_326-3" data-name="Ellipse 326" class="cls-6" cx="5.5" cy="6.5" rx="5.5" ry="6.5" transform="translate(418.509 400.064)"/>
        <circle id="Ellipse_327-3" data-name="Ellipse 327" class="cls-6" cx="6.5" cy="6.5" r="6.5" transform="translate(450.509 400.064)"/>
        <circle id="Ellipse_328-3" data-name="Ellipse 328" class="cls-6" cx="6.5" cy="6.5" r="6.5" transform="translate(483.509 400.064)"/>
      </g>
      <g id="Group_237" data-name="Group 237" transform="translate(-261 658)">
        <rect id="Rectangle_832-2" data-name="Rectangle 832" class="cls-5" width="15" height="209" transform="translate(608 182)"/>
        <rect id="Rectangle_833-2" data-name="Rectangle 833" class="cls-5" width="15" height="209" transform="translate(633 182)"/>
        <rect id="Rectangle_834-2" data-name="Rectangle 834" class="cls-5" width="65" height="17" transform="translate(608 455)"/>
        <rect id="Rectangle_835-2" data-name="Rectangle 835" class="cls-5" width="15" height="209" transform="translate(658 182)"/>
        <rect id="Rectangle_836-2" data-name="Rectangle 836" class="cls-5" width="65" height="17" transform="translate(608 401)"/>
        <rect id="Rectangle_837-2" data-name="Rectangle 837" class="cls-5" width="65" height="17" transform="translate(608 428)"/>
      </g>
      <g id="Group_238" data-name="Group 238" transform="translate(857.491 -184.254)">
        <ellipse id="Ellipse_267-4" data-name="Ellipse 267" class="cls-6" cx="9" cy="8.5" rx="9" ry="8.5" transform="translate(119.509 268.254)"/>
        <ellipse id="Ellipse_268-4" data-name="Ellipse 268" class="cls-6" cx="9" cy="8.5" rx="9" ry="8.5" transform="translate(165.509 268.254)"/>
        <ellipse id="Ellipse_271-4" data-name="Ellipse 271" class="cls-6" cx="9" cy="8.5" rx="9" ry="8.5" transform="translate(210.509 268.254)"/>
        <ellipse id="Ellipse_272-4" data-name="Ellipse 272" class="cls-6" cx="9.5" cy="8.5" rx="9.5" ry="8.5" transform="translate(254.509 268.254)"/>
        <ellipse id="Ellipse_273-4" data-name="Ellipse 273" class="cls-6" cx="9" cy="8.5" rx="9" ry="8.5" transform="translate(119.509 313.254)"/>
        <ellipse id="Ellipse_274-4" data-name="Ellipse 274" class="cls-6" cx="9" cy="8.5" rx="9" ry="8.5" transform="translate(165.509 313.254)"/>
        <ellipse id="Ellipse_275-4" data-name="Ellipse 275" class="cls-6" cx="9" cy="8.5" rx="9" ry="8.5" transform="translate(210.509 313.254)"/>
        <ellipse id="Ellipse_276-4" data-name="Ellipse 276" class="cls-6" cx="9.5" cy="8.5" rx="9.5" ry="8.5" transform="translate(254.509 313.254)"/>
        <ellipse id="Ellipse_277-4" data-name="Ellipse 277" class="cls-6" cx="9" cy="7.5" rx="9" ry="7.5" transform="translate(119.509 359.254)"/>
        <ellipse id="Ellipse_278-4" data-name="Ellipse 278" class="cls-6" cx="9" cy="7.5" rx="9" ry="7.5" transform="translate(165.509 359.254)"/>
        <ellipse id="Ellipse_279-4" data-name="Ellipse 279" class="cls-6" cx="9" cy="7.5" rx="9" ry="7.5" transform="translate(210.509 359.254)"/>
        <ellipse id="Ellipse_280-4" data-name="Ellipse 280" class="cls-6" cx="9.5" cy="7.5" rx="9.5" ry="7.5" transform="translate(254.509 359.254)"/>
        <ellipse id="Ellipse_281-4" data-name="Ellipse 281" class="cls-6" cx="9" cy="9.5" rx="9" ry="9.5" transform="translate(119.509 402.254)"/>
        <ellipse id="Ellipse_282-4" data-name="Ellipse 282" class="cls-6" cx="9" cy="9.5" rx="9" ry="9.5" transform="translate(165.509 402.254)"/>
        <ellipse id="Ellipse_283-4" data-name="Ellipse 283" class="cls-6" cx="9" cy="9.5" rx="9" ry="9.5" transform="translate(210.509 402.254)"/>
        <circle id="Ellipse_284-4" data-name="Ellipse 284" class="cls-6" cx="9.5" cy="9.5" r="9.5" transform="translate(254.509 402.254)"/>
        <circle id="Ellipse_285-4" data-name="Ellipse 285" class="cls-6" cx="9" cy="9" r="9" transform="translate(119.509 447.254)"/>
        <circle id="Ellipse_286-4" data-name="Ellipse 286" class="cls-6" cx="9" cy="9" r="9" transform="translate(165.509 447.254)"/>
        <circle id="Ellipse_287-4" data-name="Ellipse 287" class="cls-6" cx="9" cy="9" r="9" transform="translate(210.509 447.254)"/>
        <ellipse id="Ellipse_288-4" data-name="Ellipse 288" class="cls-6" cx="9.5" cy="9" rx="9.5" ry="9" transform="translate(254.509 447.254)"/>
        <ellipse id="Ellipse_289-4" data-name="Ellipse 289" class="cls-6" cx="9" cy="8.5" rx="9" ry="8.5" transform="translate(301.509 268.254)"/>
        <ellipse id="Ellipse_290-4" data-name="Ellipse 290" class="cls-6" cx="9" cy="8.5" rx="9" ry="8.5" transform="translate(343.509 268.254)"/>
        <circle id="Ellipse_291-4" data-name="Ellipse 291" class="cls-6" cx="8.5" cy="8.5" r="8.5" transform="translate(390.509 268.254)"/>
        <circle id="Ellipse_292-4" data-name="Ellipse 292" class="cls-6" cx="8.5" cy="8.5" r="8.5" transform="translate(435.509 268.254)"/>
        <ellipse id="Ellipse_293-4" data-name="Ellipse 293" class="cls-6" cx="9" cy="8.5" rx="9" ry="8.5" transform="translate(301.509 313.254)"/>
        <ellipse id="Ellipse_294-4" data-name="Ellipse 294" class="cls-6" cx="9" cy="8.5" rx="9" ry="8.5" transform="translate(343.509 313.254)"/>
        <circle id="Ellipse_295-4" data-name="Ellipse 295" class="cls-6" cx="8.5" cy="8.5" r="8.5" transform="translate(390.509 313.254)"/>
        <circle id="Ellipse_296-4" data-name="Ellipse 296" class="cls-6" cx="8.5" cy="8.5" r="8.5" transform="translate(435.509 313.254)"/>
        <ellipse id="Ellipse_297-4" data-name="Ellipse 297" class="cls-6" cx="9" cy="7.5" rx="9" ry="7.5" transform="translate(301.509 359.254)"/>
        <ellipse id="Ellipse_298-4" data-name="Ellipse 298" class="cls-6" cx="9" cy="7.5" rx="9" ry="7.5" transform="translate(343.509 359.254)"/>
        <ellipse id="Ellipse_299-4" data-name="Ellipse 299" class="cls-6" cx="8.5" cy="7.5" rx="8.5" ry="7.5" transform="translate(390.509 359.254)"/>
        <ellipse id="Ellipse_300-4" data-name="Ellipse 300" class="cls-6" cx="8.5" cy="7.5" rx="8.5" ry="7.5" transform="translate(435.509 359.254)"/>
        <ellipse id="Ellipse_301-4" data-name="Ellipse 301" class="cls-6" cx="9" cy="9.5" rx="9" ry="9.5" transform="translate(301.509 402.254)"/>
        <ellipse id="Ellipse_302-4" data-name="Ellipse 302" class="cls-6" cx="9" cy="9.5" rx="9" ry="9.5" transform="translate(343.509 402.254)"/>
        <ellipse id="Ellipse_303-4" data-name="Ellipse 303" class="cls-6" cx="8.5" cy="9.5" rx="8.5" ry="9.5" transform="translate(390.509 402.254)"/>
        <ellipse id="Ellipse_304-4" data-name="Ellipse 304" class="cls-6" cx="8.5" cy="9.5" rx="8.5" ry="9.5" transform="translate(435.509 402.254)"/>
        <circle id="Ellipse_305-4" data-name="Ellipse 305" class="cls-6" cx="9" cy="9" r="9" transform="translate(301.509 447.254)"/>
        <circle id="Ellipse_306-4" data-name="Ellipse 306" class="cls-6" cx="9" cy="9" r="9" transform="translate(343.509 447.254)"/>
        <ellipse id="Ellipse_307-4" data-name="Ellipse 307" class="cls-6" cx="8.5" cy="9" rx="8.5" ry="9" transform="translate(390.509 447.254)"/>
        <ellipse id="Ellipse_308-4" data-name="Ellipse 308" class="cls-6" cx="8.5" cy="9" rx="8.5" ry="9" transform="translate(435.509 447.254)"/>
        <ellipse id="Ellipse_309-4" data-name="Ellipse 309" class="cls-6" cx="9.5" cy="8.5" rx="9.5" ry="8.5" transform="translate(478.509 268.254)"/>
        <ellipse id="Ellipse_310-4" data-name="Ellipse 310" class="cls-6" cx="7.5" cy="8.5" rx="7.5" ry="8.5" transform="translate(526.509 268.254)"/>
        <ellipse id="Ellipse_311-4" data-name="Ellipse 311" class="cls-6" cx="9" cy="8.5" rx="9" ry="8.5" transform="translate(569.509 268.254)"/>
        <ellipse id="Ellipse_312-4" data-name="Ellipse 312" class="cls-6" cx="9" cy="8.5" rx="9" ry="8.5" transform="translate(614.509 268.254)"/>
        <ellipse id="Ellipse_313-4" data-name="Ellipse 313" class="cls-6" cx="9.5" cy="8.5" rx="9.5" ry="8.5" transform="translate(478.509 313.254)"/>
        <ellipse id="Ellipse_314-4" data-name="Ellipse 314" class="cls-6" cx="7.5" cy="8.5" rx="7.5" ry="8.5" transform="translate(526.509 313.254)"/>
        <ellipse id="Ellipse_315-4" data-name="Ellipse 315" class="cls-6" cx="9" cy="8.5" rx="9" ry="8.5" transform="translate(569.509 313.254)"/>
        <ellipse id="Ellipse_316-4" data-name="Ellipse 316" class="cls-6" cx="9" cy="8.5" rx="9" ry="8.5" transform="translate(614.509 313.254)"/>
        <ellipse id="Ellipse_317-4" data-name="Ellipse 317" class="cls-6" cx="9.5" cy="7.5" rx="9.5" ry="7.5" transform="translate(478.509 359.254)"/>
        <circle id="Ellipse_318-4" data-name="Ellipse 318" class="cls-6" cx="7.5" cy="7.5" r="7.5" transform="translate(526.509 359.254)"/>
        <ellipse id="Ellipse_319-4" data-name="Ellipse 319" class="cls-6" cx="9" cy="7.5" rx="9" ry="7.5" transform="translate(569.509 359.254)"/>
        <ellipse id="Ellipse_320-4" data-name="Ellipse 320" class="cls-6" cx="9" cy="7.5" rx="9" ry="7.5" transform="translate(614.509 359.254)"/>
        <circle id="Ellipse_321-4" data-name="Ellipse 321" class="cls-6" cx="9.5" cy="9.5" r="9.5" transform="translate(478.509 402.254)"/>
        <ellipse id="Ellipse_322-4" data-name="Ellipse 322" class="cls-6" cx="7.5" cy="9.5" rx="7.5" ry="9.5" transform="translate(526.509 402.254)"/>
        <ellipse id="Ellipse_323-4" data-name="Ellipse 323" class="cls-6" cx="9" cy="9.5" rx="9" ry="9.5" transform="translate(569.509 402.254)"/>
        <ellipse id="Ellipse_324-4" data-name="Ellipse 324" class="cls-6" cx="9" cy="9.5" rx="9" ry="9.5" transform="translate(614.509 402.254)"/>
        <ellipse id="Ellipse_325-4" data-name="Ellipse 325" class="cls-6" cx="9.5" cy="9" rx="9.5" ry="9" transform="translate(478.509 447.254)"/>
        <ellipse id="Ellipse_326-4" data-name="Ellipse 326" class="cls-6" cx="7.5" cy="9" rx="7.5" ry="9" transform="translate(526.509 447.254)"/>
        <circle id="Ellipse_327-4" data-name="Ellipse 327" class="cls-6" cx="9" cy="9" r="9" transform="translate(569.509 447.254)"/>
        <circle id="Ellipse_328-4" data-name="Ellipse 328" class="cls-6" cx="9" cy="9" r="9" transform="translate(614.509 447.254)"/>
      </g>
    </g>
    <text id="Created_by_Carl_Voller" data-name="Created by Carl Voller" class="cls-7" transform="translate(1671 1056)"><tspan x="0" y="0">Created by Carl Voller</tspan></text>
  </g>
</svg>
